<?xml version="1.0" standalone="no"?>
<!DOCTYPE svg PUBLIC "-//W3C//DTD SVG 1.1//EN" "http://www.w3.org/Graphics/SVG/1.1/DTD/svg11.dtd" >
<svg xmlns="http://www.w3.org/2000/svg">
<metadata></metadata>
<defs>
<font id="gunplayregular" horiz-adv-x="1339" >
<font-face units-per-em="2048" ascent="1589" descent="-459" />
<missing-glyph horiz-adv-x="692" />
<glyph horiz-adv-x="2048" />
<glyph horiz-adv-x="2048" />
<glyph unicode="&#xd;" horiz-adv-x="692" />
<glyph unicode=" "  horiz-adv-x="692" />
<glyph unicode="&#x09;" horiz-adv-x="692" />
<glyph unicode="&#xa0;" horiz-adv-x="692" />
<glyph unicode="!" horiz-adv-x="575" d="M92 1622h389l-82 -1165h-225zM106 0v293h363v-293h-363z" />
<glyph unicode="&#x22;" horiz-adv-x="827" d="M98 1378v287h279v-291l-45 -334h-189zM459 1378v287h274v-291l-45 -334h-184z" />
<glyph unicode="#" horiz-adv-x="1103" d="M45 760l53 153h205v-8l51 164h-219l53 152h220v-9l110 326h137l-108 -317h168v-9l112 326h134l-105 -317h201l-51 -152h-201v6l-55 -162h215l-52 -153h-211v4l-110 -322h-137l106 318h-168v4l-112 -322h-138l109 318h-207zM440 913h172v-10l56 166h-172v6z" />
<glyph unicode="$" horiz-adv-x="995" d="M51 592h266q6 -133 95 -166v-225q-360 43 -361 391zM80 1171q0 283 332 314v-217q-35 -14 -48.5 -40t-13.5 -61q0 -55 62 -98v-299l-183 133q-68 45 -108.5 112.5t-40.5 155.5zM463 55v1569h78v-1569h-78zM596 201v219q76 20 76 90q0 49 -20.5 81t-55.5 48v295 q86 -57 150.5 -105.5t108.5 -95.5t65.5 -99t21.5 -120q0 -287 -346 -313zM596 1257v228q338 -37 338 -357h-279q0 94 -59 129z" />
<glyph unicode="%" horiz-adv-x="1769" d="M78 1141v229q0 129 84 204t258 81v-195q-37 -4 -59.5 -18.5t-22.5 -36.5v-307q0 -29 22.5 -47.5t59.5 -26.5v-197q-342 16 -342 314zM199 0l1128 1624h221l-1128 -1624h-221zM479 827v197q74 8 74 74v307q0 45 -74 55v197q74 -2 136.5 -22.5t108.5 -57.5t71.5 -90 t25.5 -123v-229q0 -291 -342 -308zM948 279v229q1 139 103 211q92 63 245 74v-195q-39 -4 -61.5 -20.5t-22.5 -38.5v-306q0 -29 22.5 -49t61.5 -26v-191q-348 12 -348 312zM1356 -33v191q74 14 74 75v304q0 23 -20.5 40t-53.5 21v195q70 -4 131 -22.5t107 -53.5t73 -88.5 t27 -124.5v-228q0 -147 -86 -223t-252 -86z" />
<glyph unicode="&#x26;" horiz-adv-x="1517" d="M78 426q0 188 248 418l174 -230q-82 -68 -82 -151q0 -193 205 -205q76 0 153 47l209 -207q-158 -133 -387 -133q-270 0 -395 109.5t-125 351.5zM201 1298q0 186 107.5 272.5t336.5 86.5t341 -84t112 -270q0 -119 -68.5 -227.5t-216.5 -219.5l-149 231q129 94 129 224 q0 63 -34 98t-106 35q-74 0 -112.5 -35t-38.5 -98q0 -72 63.5 -192t182 -264t286.5 -302t377 -307l-106 -281q-168 72 -409 296t-542 628q-154 168 -153 409zM1063 586q29 29 44 79t28 126l325 -5q0 -186 -160 -389z" />
<glyph unicode="'" horiz-adv-x="462" d="M98 1378v287h279v-291l-45 -334h-189z" />
<glyph unicode="(" horiz-adv-x="520" d="M47 702q0 492 275 957l159 -74q-240 -428 -239 -876q0 -446 235 -910l-172 -47q-258 487 -258 950z" />
<glyph unicode=")" horiz-adv-x="520" d="M47 1585l158 74q141 -242 208.5 -475.5t67.5 -481.5q0 -461 -256 -950l-174 47q123 236 180.5 461t57.5 449q0 451 -242 876z" />
<glyph unicode="*" horiz-adv-x="831" d="M47 1221l305 20l-235 213l102 92l184 -258l66 305l129 -49l-127 -278l291 90l24 -137l-305 -21l226 -223l-105 -86l-172 260l-78 -309l-127 45l142 291l-293 -93z" />
<glyph unicode="+" horiz-adv-x="991" d="M37 686v223h344v326h242v-326h329v-223h-329v-346h-242v346h-344z" />
<glyph unicode="," horiz-adv-x="507" d="M90 -242l121 242h-109v276h338v-266l-180 -252h-170z" />
<glyph unicode="-" horiz-adv-x="870" d="M102 569v168h664v-168h-664z" />
<glyph unicode="." horiz-adv-x="565" d="M102 0v256h361v-256h-361z" />
<glyph unicode="/" horiz-adv-x="1128" d="M14 -209l871 1868h229l-868 -1868h-232z" />
<glyph unicode="0" d="M92 463v741q0 436 539 453v-264q-158 -18 -158 -172v-818q0 -158 158 -174v-262q-539 23 -539 496zM698 -33v262q162 14 162 174v818q0 158 -162 172v266q551 -4 551 -463v-741q0 -475 -551 -488z" />
<glyph unicode="1" horiz-adv-x="747" d="M25 1202v203q174 0 264 50t112 167h244v-1622h-371v1202h-249z" />
<glyph unicode="2" horiz-adv-x="1286" d="M80 0v272h1083v-272h-1083zM102 332q53 150 153.5 265.5t254.5 197.5q174 92 255 183t81 202q0 217 -160 217q-104 0 -154.5 -45t-50.5 -150l-6 -84h-364q2 537 567 537q514 0 514 -406q0 -199 -78 -334t-252 -221q-295 -152 -334 -362h-426z" />
<glyph unicode="3" horiz-adv-x="1228" d="M72 502h356q0 -250 152 -262v-271q-502 25 -508 533zM82 1151q0 483 485 502v-273q-133 -16 -133 -149v-80h-352zM434 709v266h103q117 0 174 53t57 170q0 166 -129 182v273q463 -8 463 -471q0 -221 -164 -336q201 -105 207 -375q0 -248 -120 -373t-384 -129v271 q166 14 166 202q0 135 -60.5 201t-195.5 66h-117z" />
<glyph unicode="4" horiz-adv-x="1265" d="M35 317v242l563 950v-501l-258 -441h258v-250h-563zM659 0v1612l9 10h344v-1055h227v-250h-227v-317h-353z" />
<glyph unicode="5" horiz-adv-x="1222" d="M88 528h332v-104q0 -190 178 -197v-260q-508 0 -510 561zM94 735l41 887h948v-272h-651l-12 -328q37 37 80 61.5t98 32.5v-248q-156 -18 -190 -145zM659 -31v260q131 20 132 201v307q0 119 -132 131v254q248 -4 359.5 -102t111.5 -297v-320q0 -403 -471 -434z" />
<glyph unicode="6" horiz-adv-x="1304" d="M92 440v799q0 408 545 418v-268q-176 -12 -176 -150v-326q131 106 319 107q223 0 328.5 -82t105.5 -262v-244q0 -446 -536 -465v266q168 8 168 164v252q0 117 -148 117q-98 0 -156.5 -20.5t-80.5 -73.5v-281q0 -70 38 -108.5t124 -49.5v-266q-268 6 -399.5 119 t-131.5 354zM694 1386v271q266 -4 389 -109.5t123 -318.5v-88h-366v108q-2 61 -36 95t-110 42z" />
<glyph unicode="7" horiz-adv-x="1085" d="M72 1350v272h979v-272h-979zM248 0l430 1303h356l-422 -1303h-364z" />
<glyph unicode="8" horiz-adv-x="1243" d="M84 471q8 272 207 375q-164 115 -164 336q0 461 467 471v-273q-131 -14 -131 -182q0 -174 131 -213v-285q-168 -37 -168 -245q0 -100 38 -153.5t124 -61.5v-271q-260 4 -382 130t-122 372zM649 1380v273q465 -10 465 -471q0 -225 -164 -336q199 -103 209 -375 q0 -248 -122 -373t-382 -129v271q86 8 124 61t38 154q0 207 -162 245v285q125 43 125 213q0 80 -33.5 125t-91.5 55z" />
<glyph unicode="9" horiz-adv-x="1304" d="M90 395v90h367v-106q4 -127 155 -139v-273q-272 6 -397 111.5t-125 316.5zM90 948v244q0 451 537 465v-266q-168 -2 -168 -164v-252q0 -119 149 -119q98 0 154.5 22.5t83.5 73.5v279q0 141 -160 158v268q264 -4 395 -121t131 -352v-797q0 -408 -542 -420v273 q172 6 176 145v326q-139 -109 -322 -109q-221 0 -327.5 81t-106.5 265z" />
<glyph unicode=":" horiz-adv-x="501" d="M102 0v283h326v-283h-326zM102 430v283h326v-283h-326z" />
<glyph unicode=";" horiz-adv-x="503" d="M88 -250l123 250h-113v289h328v-279l-168 -260h-170zM98 438v285h328v-285h-328z" />
<glyph unicode="&#x3c;" horiz-adv-x="684" d="M18 643v195l594 434v-219l-444 -316l444 -309v-217z" />
<glyph unicode="=" horiz-adv-x="1128" d="M102 338v215h973v-215h-973zM102 770v215h973v-215h-973z" />
<glyph unicode="&#x3e;" horiz-adv-x="714" d="M102 211v219l445 313l-445 310v217l596 -432v-195z" />
<glyph unicode="?" horiz-adv-x="1134" d="M49 1229q0 418 498 424v-256q-80 -4 -124 -39t-44 -98v-13.5t2 -15.5zM381 0v305h342v-305h-342zM410 465q4 154 43 262.5t125 173.5q160 119 159 270v31q0 174 -135 193v258q479 -16 479 -445q0 -111 -42 -199.5t-140 -160.5q-74 -55 -114 -104.5t-58 -94.5t-21.5 -85 t-3.5 -77v-22h-292z" />
<glyph unicode="@" horiz-adv-x="1574" d="M57 754q0 141 40 290.5t125 274.5t218 210t320 97v-182q-117 -10 -215.5 -65.5t-169 -145.5t-109.5 -210t-39 -261q0 -133 36 -239.5t104.5 -183.5t170 -122t232.5 -53v-180q-166 8 -298 65t-224 156.5t-141.5 238t-49.5 310.5zM336 735v17h199v-29q0 -98 36.5 -155.5 t96.5 -57.5h10q31 0 60.5 20.5t57 54t51 79t40.5 92.5h160l-31 -164q-2 -2 -2 -25t14 -33t53 -10t81 30t76 85t55.5 135t21.5 180q0 102 -36 189.5t-98.5 152t-148.5 104.5t-186 48v178q139 -6 257 -58t203 -141.5t132 -211t47 -265.5q0 -117 -41 -227.5t-104.5 -196.5 t-142.5 -139t-153 -53q-70 0 -112.5 40t-57.5 95q-25 -25 -55.5 -49.5t-62 -43t-62 -30.5t-55.5 -12q-63 0 -118.5 30.5t-96.5 85t-64.5 127t-23.5 158.5zM342 852q18 86 60 166t97.5 139.5t121 95t133.5 35.5q123 0 207 -104l14 78h172l-78 -410h-166q2 10 3 22.5t1 26.5 q0 98 -42 155.5t-109 57.5q-29 0 -60.5 -21.5t-60.5 -58.5t-51.5 -84t-32.5 -98h-209zM883 -16v180q129 4 226 49t167 119h219q-111 -166 -257 -255t-355 -93z" />
<glyph unicode="A" horiz-adv-x="1327" d="M14 0l412 1622h481l412 -1622h-391l-76 340h-324l54 270h215l-127 660l-287 -1270h-369z" />
<glyph unicode="B" horiz-adv-x="1331" d="M102 0v1622h371v-1622h-371zM541 0v272h137q193 0 192 203q0 219 -200 219h-129v271h129q88 0 131 47t43 135q0 104 -41 153.5t-133 49.5h-129v272h118q565 0 566 -430q0 -317 -219 -361q117 -29 181 -125t64 -262q0 -444 -567 -444h-143z" />
<glyph unicode="C" horiz-adv-x="1331" d="M92 444v770q0 418 531 443v-266q-150 -18 -150 -162v-844q0 -135 150 -156v-262q-530 20 -531 477zM698 -33v262q162 14 162 156v223h389v-174q0 -455 -551 -467zM698 1393v266q551 -4 551 -451v-151h-389v172q0 156 -162 164z" />
<glyph unicode="D" horiz-adv-x="1335" d="M102 0v1622h371v-1622h-371zM530 0v276h134q104 0 150 35t46 109v760q0 88 -48 127t-153 39h-129v276h193q520 0 520 -457v-702q0 -463 -524 -463h-189z" />
<glyph unicode="E" horiz-adv-x="1081" d="M102 0v1622h375v-1622h-375zM535 0v281h487v-281h-487zM535 709v270h458v-270h-458zM535 1350v272h487v-272h-487z" />
<glyph unicode="F" horiz-adv-x="1060" d="M102 0v1622h375v-1622h-375zM535 709v270h458v-270h-458zM535 1350v272h487v-272h-487z" />
<glyph unicode="G" horiz-adv-x="1318" d="M92 446v768q0 442 533 443v-264q-152 -18 -152 -164v-838q0 -145 152 -162v-256q-279 0 -406 113t-127 360zM653 715v243h570v-958h-172l-82 117q-84 -145 -269 -146h-16v258q176 4 176 162v221q0 102 -86 103h-121zM684 1395v264q539 0 539 -449v-147h-363v166 q0 160 -176 166z" />
<glyph unicode="H" horiz-adv-x="1327" d="M102 0v1622h373v-1622h-373zM541 707v270h307v645h377v-1622h-377v707h-307z" />
<glyph unicode="I" horiz-adv-x="587" d="M102 0v1622h383v-1622h-383z" />
<glyph unicode="J" horiz-adv-x="780" d="M41 0v289h27q123 0 180 25.5t61 78.5v1229h377v-1159q0 -463 -467 -463h-178z" />
<glyph unicode="K" horiz-adv-x="1370" d="M102 0v1622h377v-1622h-377zM537 563v465l170 277l622 -1305h-399l-316 678zM754 1370l149 252h393l-391 -561z" />
<glyph unicode="L" horiz-adv-x="1011" d="M102 0v1622h373v-1622h-373zM547 0v272h430v-272h-430z" />
<glyph unicode="M" horiz-adv-x="1753" d="M102 0v1622h349v-1622h-349zM492 903v719h106l279 -1114l272 1114h108v-731l-299 -891h-178zM1300 0v1622h353v-1622h-353z" />
<glyph unicode="N" horiz-adv-x="1398" d="M102 0v1622h349v-1622h-349zM496 930v565l405 -827v-559zM944 0v1622h354v-1622h-354z" />
<glyph unicode="O" d="M92 463v741q0 436 539 453v-264q-158 -18 -158 -172v-818q0 -158 158 -174v-262q-539 23 -539 496zM698 -33v262q162 14 162 174v818q0 158 -162 172v266q551 -4 551 -463v-741q0 -475 -551 -488z" />
<glyph unicode="P" horiz-adv-x="1259" d="M102 0v1622h371v-1622h-371zM541 694v271h129q88 0 131 47t43 135q0 104 -41 153.5t-133 49.5h-129v272h118q565 0 566 -430q0 -260 -134.5 -379t-420.5 -119h-129z" />
<glyph unicode="Q" horiz-adv-x="1316" d="M78 463v741q0 438 536 453v-264q-156 -18 -155 -172v-818q0 -160 155 -174v-262q-537 18 -536 496zM680 -74v303q166 14 166 174v818q0 156 -166 172v266q549 -2 549 -463v-741q0 -399 -389 -469v-17h381v-241h-355q-186 0 -186 198z" />
<glyph unicode="R" horiz-adv-x="1312" d="M102 0v1622h371v-1622h-371zM541 694v271h129q88 0 131 47t43 135q0 104 -41 153.5t-133 49.5h-129v272h118q565 0 566 -430q0 -160 -50.5 -249t-166.5 -112q213 -55 213 -331v-357q0 -47 5 -83.5t19 -59.5h-379q-26 38 -26 113v6v366q0 209 -170 209h-129z" />
<glyph unicode="S" horiz-adv-x="1359" d="M76 481h358q6 -215 207 -233v-281q-565 20 -565 514zM109 1231q0 406 530 420v-275q-92 -10 -125 -46t-33 -107q0 -68 56 -107q37 -23 90 -58.5t111.5 -75.5t115.5 -81t103.5 -73.5t75 -53t30.5 -20.5q217 -156 217 -375q0 -399 -549 -412v279q182 16 182 131 q-12 78 -96 143q-141 104 -264 196.5t-242 172.5q-166 131 -202 342zM731 1376v275q537 -20 537 -469h-377q0 170 -160 194z" />
<glyph unicode="T" horiz-adv-x="1214" d="M35 1350v272h1155v-272h-1155zM424 0v1286h373v-1286h-373z" />
<glyph unicode="U" horiz-adv-x="1347" d="M98 463v1159h381v-1219q0 -158 158 -174v-262q-539 18 -539 496zM702 -33v262q80 8 122 48t42 126v1219h385v-1167q-2 -475 -549 -488z" />
<glyph unicode="V" horiz-adv-x="1292" d="M14 1622h371l385 -1622h-307zM700 592l215 1030h373l-442 -1622z" />
<glyph unicode="W" horiz-adv-x="1904" d="M18 1622h361l307 -1622h-272zM608 805l185 817h315l367 -1622h-291l-234 1126l-215 -989zM1366 813l158 809h360l-364 -1458z" />
<glyph unicode="X" horiz-adv-x="1433" d="M45 0l420 762l180 -307l-205 -455h-395zM49 1622h400l931 -1622h-403zM762 1219l186 403h395l-409 -713z" />
<glyph unicode="Y" horiz-adv-x="1329" d="M25 1622h385l215 -535l-168 -403zM485 0v575l435 1047h393l-455 -938v-684h-373z" />
<glyph unicode="Z" horiz-adv-x="1204" d="M66 0v289h1081v-289h-1081zM109 342l579 942h414l-580 -942h-413zM125 1333v289h1022v-289h-1022z" />
<glyph unicode="[" horiz-adv-x="520" d="M102 -203v1862h344v-141h-167v-1590h167v-131h-344z" />
<glyph unicode="\" horiz-adv-x="1128" d="M14 1659h232l868 -1868h-229z" />
<glyph unicode="]" horiz-adv-x="520" d="M102 -72h170v1590h-170v141h344v-1862h-344v131z" />
<glyph unicode="^" horiz-adv-x="1112" d="M49 977l424 645h168l420 -645h-187l-319 506l-319 -506h-187z" />
<glyph unicode="_" horiz-adv-x="1329" d="M-4 -246h1352v-194h-1352v194z" />
<glyph unicode="`" horiz-adv-x="659" d="M-14 1466h379l190 -225h-201z" />
<glyph unicode="a" horiz-adv-x="1193" d="M82 322q0 174 140 277t448 144v-215q-123 -29 -180.5 -71.5t-61.5 -96.5q4 -133 94 -133q47 0 83 3t65 14v-209q-78 -49 -197 -49q-391 0 -391 336zM137 782q0 352 502 353q446 0 446 -336v-348q0 -375 43 -451h-337q-29 33 -40.5 71t-11.5 85v641q0 96 -100 96 q-78 0 -119 -25.5t-45 -85.5h-338z" />
<glyph unicode="b" horiz-adv-x="1114" d="M102 0v1647h338v-1647h-338zM500 55v191q41 -35 88 -35q63 0 95 24.5t32 81.5v449q0 139 -137 139q-45 0 -78 -31v197q94 63 229 64q174 0 253 -96.5t79 -307.5v-366q0 -186 -74 -282.5t-233 -96.5q-147 0 -254 69z" />
<glyph unicode="c" horiz-adv-x="1136" d="M90 381v373q0 371 447 381v-242q-47 -6 -75 -39t-28 -90v-404q0 -125 103 -143v-244q-446 16 -447 408zM602 -27v244q113 20 113 143v111h342v-92q0 -387 -455 -406zM602 893v242q455 -10 455 -385v-107h-342v121q0 115 -113 129z" />
<glyph unicode="d" horiz-adv-x="1114" d="M51 365v366q0 205 78 304.5t244 99.5q147 0 241 -64v-197q-34 31 -79 31q-137 0 -138 -139v-449q0 -57 33 -81.5t92 -24.5q45 0 92 35v-191q-105 -69 -254 -69h-4q-154 0 -229.5 96t-75.5 283zM674 0v1647h338v-1647h-338z" />
<glyph unicode="e" horiz-adv-x="1140" d="M90 381v373q0 375 451 383v-244q-106 -8 -107 -129v-84h107v-166h-107v-154q0 -127 107 -145v-242q-451 12 -451 408zM598 -27v244q117 18 117 143v31h342v-12q0 -387 -459 -406zM598 514v166h117v84q0 117 -117 129v242q459 -10 459 -385v-236h-459z" />
<glyph unicode="f" horiz-adv-x="770" d="M18 852v256h121v-256h-121zM197 0v1253q0 393 366 394h176v-238h-53h-19.5t-21.5 2q-113 -2 -113 -158v-1253h-335zM588 852v256h157v-256h-157z" />
<glyph unicode="g" horiz-adv-x="1118" d="M78 446v297q0 193 71.5 284t231.5 95q76 -4 140.5 -18t119.5 -49v-189q-47 29 -94 29q-61 0 -92 -22.5t-31 -81.5v-365q0 -29 5 -55.5t18.5 -48t36 -35t57.5 -13.5q63 0 100 58v-197q-70 -88 -203 -94q-360 0 -360 405zM350 -123q16 -6 45 -8t68 -2q123 0 186.5 42 t63.5 163v1036h311v-965q0 -510 -506 -510q-43 0 -85 6.5t-83 12.5v225z" />
<glyph unicode="h" horiz-adv-x="1116" d="M102 0v1647h338v-1647h-338zM500 874v197q94 63 229 64q166 0 250 -90.5t84 -294.5v-750h-348v750q0 155 -135 155h-2q-45 0 -78 -31z" />
<glyph unicode="i" horiz-adv-x="538" d="M102 0v1108h332v-1108h-332zM102 1260v262h338v-262h-338z" />
<glyph unicode="j" horiz-adv-x="518" d="M-154 -113q23 -8 39.5 -9t32.5 -1q86 0 129 25.5t43 103.5v1102h334v-1106q0 -369 -389 -369q-51 0 -98.5 6.5t-90.5 12.5v235zM90 1262v262h334v-262h-334z" />
<glyph unicode="k" horiz-adv-x="1171" d="M102 0v1647h338v-1647h-338zM481 340v377l137 231l523 -948h-346l-242 459zM653 999l62 109h383l-289 -399z" />
<glyph unicode="l" horiz-adv-x="544" d="M102 0v1647h338v-1647h-338z" />
<glyph unicode="m" horiz-adv-x="1705" d="M102 0v1108h338v-1108h-338zM500 874v197q94 63 188 64q111 0 178.5 -41.5t108.5 -139.5q27 45 72 84v-231q-27 -20 -27 -74v-733h-348v770q0 135 -94 135q-45 0 -78 -31zM1100 874v197q76 63 176 64q160 0 246 -93.5t86 -291.5v-750h-348v770q0 135 -93 135 q-43 0 -67 -31z" />
<glyph unicode="n" horiz-adv-x="1161" d="M102 0v1108h338v-1108h-338zM500 874v197q94 63 229 64q166 0 250 -90.5t84 -294.5v-750h-348v766q0 139 -137 139q-45 0 -78 -31z" />
<glyph unicode="o" horiz-adv-x="1144" d="M90 381v373q0 379 465 383v-242q-121 -10 -121 -131v-404q0 -139 121 -145v-242q-465 10 -465 408zM598 -27v244q117 18 117 143v404q0 117 -117 129v244q459 -10 459 -387v-371q0 -387 -459 -406z" />
<glyph unicode="p" horiz-adv-x="1118" d="M102 -367v1475h338v-1475h-338zM500 37v196q33 -30 78 -30q137 0 137 137v451q0 59 -32 81.5t-95 22.5q-47 0 -88 -29v189q51 33 116.5 50t137.5 17q307 0 307 -379v-364q0 -211 -78 -308.5t-246 -97.5q-150 0 -237 64z" />
<glyph unicode="q" horiz-adv-x="1118" d="M59 379v364q0 193 72 286t225 93q152 0 267 -67v-189q-47 29 -93 29q-63 0 -95 -22.5t-32 -81.5v-435q0 -61 31 -107t107 -46q41 0 82 30v-196q-94 -63 -232 -64q-174 0 -253 97.5t-79 308.5zM680 -367v1475h336v-1475h-336z" />
<glyph unicode="r" horiz-adv-x="811" d="M102 0v1108h338v-1108h-338zM492 774v232q87 112 253 112h3h22v-280q-29 10 -56.5 14t-54.5 4q-113 0 -167 -82z" />
<glyph unicode="s" horiz-adv-x="1112" d="M72 401h307q0 -166 160 -184v-248q-461 16 -467 432zM117 801q0 326 430 336v-244q-121 -4 -121 -82q0 -35 45 -62.5t113.5 -56t148.5 -60.5t148.5 -77t113.5 -105.5t45 -144.5q0 -328 -454 -336v246q145 0 145 80q0 82 -207 149q-205 66 -306 146t-101 211zM592 893v242 q428 -10 434 -387h-297q-4 133 -137 145z" />
<glyph unicode="t" horiz-adv-x="792" d="M18 852v256h134v-256h-134zM193 346v1098h331v-1077q0 -156 135 -156q23 0 51.5 2t63.5 6v-233q-23 -4 -63.5 -8.5t-98.5 -10.5q-420 2 -419 379zM575 852v256h142v-256h-142z" />
<glyph unicode="u" horiz-adv-x="1159" d="M98 356v752h346v-768q0 -137 138 -137q45 0 82 30v-196q-94 -63 -234 -64q-166 0 -249 92.5t-83 290.5zM719 0v1108h340v-1108h-340z" />
<glyph unicode="v" horiz-adv-x="1105" d="M20 1108h316l377 -1108h-299zM582 575l155 533h336l-328 -1004z" />
<glyph unicode="w" horiz-adv-x="1669" d="M37 1108h325l265 -1108h-244zM559 535l158 573h246l327 -1108h-256l-192 733l-170 -678zM1192 522l129 586h315l-309 -1053z" />
<glyph unicode="x" horiz-adv-x="1196" d="M57 0l328 537l178 -263l-170 -274h-336zM78 1108h348l717 -1108h-338zM641 874l135 234h354l-321 -498z" />
<glyph unicode="y" horiz-adv-x="1114" d="M33 1108h317l350 -1186q-35 -92 -81 -148.5t-107 -88t-140 -42t-179 -10.5q-14 0 -23 5v253h63q172 0 177 154zM606 496l142 612h339l-354 -1096z" />
<glyph unicode="z" horiz-adv-x="1005" d="M61 0v248h883v-248h-883zM106 862v246h838v-246h-838zM113 291l419 524h359l-416 -524h-362z" />
<glyph unicode="{" horiz-adv-x="798" d="M35 473v262q104 18 156.5 78.5t52.5 171.5v272q0 141 29.5 223.5t90 123.5t151.5 52t214 11v-194q-59 -6 -109.5 -15.5t-87 -32t-57 -62.5t-20.5 -106v-262q0 -164 -53.5 -256t-188.5 -137q135 -41 188.5 -133t53.5 -254v-262q0 -66 20.5 -106t57 -61.5t87 -30.5 t109.5 -15v-195q-123 0 -214 10.5t-151.5 51.5t-90 122t-29.5 222v272q0 215 -209 250z" />
<glyph unicode="|" horiz-adv-x="425" d="M102 -367v2108h224v-2108h-224z" />
<glyph unicode="}" horiz-adv-x="798" d="M72 -260q59 6 109 15t87 30.5t57.5 60.5t20.5 107v264q0 162 53.5 254t186.5 137q-133 41 -186.5 133.5t-53.5 253.5v262q0 66 -20.5 106t-57.5 62.5t-87 31.5t-109 16v192q123 0 213 -10t150.5 -51t90 -122t29.5 -222v-271q0 -117 52 -175t157 -77v-262 q-104 -16 -156.5 -77.5t-52.5 -172.5v-272q0 -141 -29.5 -222t-90 -123t-150.5 -52.5t-213 -10.5v195z" />
<glyph unicode="~" horiz-adv-x="1273" d="M143 664v200q61 53 127 73.5t133 20.5q55 0 112.5 -9t115 -21.5t115 -21.5t116.5 -9q66 0 133.5 18.5t132.5 65.5v-201q-66 -47 -133 -63.5t-135 -16.5q-57 0 -114.5 8.5t-115 19.5t-113.5 19.5t-111 8.5q-68 0 -133.5 -19.5t-129.5 -72.5z" />
<glyph unicode="&#xa1;" horiz-adv-x="575" d="M92 -225l80 1163h225l84 -1163h-389zM104 1108v289h359v-289h-359z" />
<glyph unicode="&#xa2;" horiz-adv-x="1052" d="M92 627v346q0 319 365 346v-234q-25 -16 -40.5 -39.5t-15.5 -64.5v-373q0 -92 56 -119v-233q-365 31 -365 371zM356 0v193h324v-193h-324zM362 1405v217h326v-217h-326zM594 256v231q63 31 63 121v101h308v-86q0 -336 -371 -367zM594 1087v232q371 -27 371 -354v-95h-308 v111q0 80 -63 106z" />
<glyph unicode="&#xa3;" horiz-adv-x="1105" d="M59 0v180h191v1004q0 393 368 393h310v-234h-226q-55 0 -85.5 -40.5t-30.5 -118.5v-1004h467v-180h-994zM74 852v256h121v-256h-121zM643 852v256h156v-256h-156z" />
<glyph unicode="&#xa4;" horiz-adv-x="1124" d="M141 553l133 133q-10 33 -12 68h162q4 -41 19.5 -76t50.5 -35h147q33 0 48.5 34t21.5 77h157q-2 -18 -6 -38t-8 -38l125 -125l-141 -143l-107 106q-16 -6 -34.5 -10t-41.5 -4h-176q-49 0 -86 18l-110 -110zM141 1106l142 143l114 -116q39 16 82 16h176q20 0 37 -4t33 -8 l113 112l141 -143l-125 -125q4 -16 8 -31.5t6 -31.5h-159q-6 35 -21.5 62.5t-46.5 27.5h-147q-31 0 -46.5 -28t-21.5 -62h-164q2 27 12 55z" />
<glyph unicode="&#xa5;" horiz-adv-x="1388" d="M49 1622h385l215 -535l-168 -403zM250 195v122h258v127h-258v123h258l438 1055h389l-450 -938v-117h227v-123h-227v-127h227v-122h-227v-195h-377v195h-258z" />
<glyph unicode="&#xa6;" horiz-adv-x="417" d="M102 -367v832h224v-832h-224zM102 913v828h224v-828h-224z" />
<glyph unicode="&#xa7;" horiz-adv-x="1165" d="M102 0v264h588q35 0 53.5 24.5t18.5 80.5q0 61 -16.5 82.5t-45.5 25.5h-10v262h29q45 0 71.5 19.5t26.5 81.5q0 57 -18.5 78.5t-53.5 21.5h-55v262h84q186 -2 263 -87t77 -269q0 -188 -115 -285q59 -55 60 -186q0 -188 -78 -281.5t-266 -93.5h-613zM102 829 q0 184 117 281q-61 76 -61 193q0 195 77.5 287.5t266.5 92.5h573v-264h-549q-35 0 -53 -24.5t-18 -85.5q0 -96 49 -105h22v-264h-55q-35 0 -53.5 -24.5t-18.5 -79.5q0 -57 18.5 -77t53.5 -20h55v-262h-84q-186 0 -263 86t-77 266z" />
<glyph unicode="&#xa8;" horiz-adv-x="903" d="M102 1241v225h271v-225h-271zM522 1241v225h277v-225h-277z" />
<glyph unicode="&#xa9;" horiz-adv-x="1822" d="M84 825q0 172 66.5 325t180 268.5t266.5 182t325 66.5t325.5 -66.5t269 -182t182 -268.5t66.5 -325q0 -176 -66.5 -328.5t-182 -267t-269 -180t-325.5 -65.5t-325 65.5t-266.5 180t-180 267t-66.5 328.5zM197 827q0 -152 57 -283.5t155.5 -230t230.5 -155t282 -56.5 q152 0 284.5 57.5t231 156t155 230t56.5 281.5q0 147 -57.5 279.5t-157 231t-231.5 155.5t-281 57q-150 0 -282 -57t-230.5 -155.5t-155.5 -230.5t-57 -280zM489 676v330q0 319 394 329v-215q-92 -10 -92 -110v-353q0 -117 92 -125v-217q-393 12 -394 361zM938 315v217 q33 6 52.5 15.5t29.5 31t14 62.5t4 109h293v-80q0 -334 -393 -355zM938 1118v217q209 -8 301 -90t92 -248v-92h-293q0 70 -3 111t-13 62.5t-30.5 29.5t-53.5 10z" />
<glyph unicode="&#xaa;" horiz-adv-x="876" d="M82 1112q0 117 94 184.5t299 96.5v-144q-80 -20 -120 -50t-44 -64q6 -90 66 -91q31 0 54.5 2.5t43.5 10.5v-142q-47 -31 -133 -30q-260 0 -260 227zM119 1419q0 238 336 238q299 0 299 -227v-234q0 -252 30 -303h-229q-33 39 -33 104v430q0 68 -67 68q-104 0 -113 -76 h-223z" />
<glyph unicode="&#xab;" horiz-adv-x="1026" d="M94 528v146l438 319v-164l-329 -229l329 -229v-160zM465 528v146l438 319v-164l-328 -229l328 -229v-160z" />
<glyph unicode="&#xac;" d="M100 676v176h1088v-852h-180v676h-908z" />
<glyph unicode="&#xad;" horiz-adv-x="870" d="M102 569v168h664v-168h-664z" />
<glyph unicode="&#xae;" horiz-adv-x="1107" d="M59 1153q0 102 39 193.5t105.5 159t157 107.5t192.5 40t193.5 -40t160 -107.5t108.5 -159t40 -193.5q0 -100 -40 -190.5t-108.5 -158t-160 -107.5t-193.5 -40t-192.5 40t-157 107.5t-105.5 158t-39 190.5zM154 1151q0 -84 31.5 -156.5t86 -126t127 -85t154.5 -31.5 q84 0 156.5 31.5t127 86t85 127t30.5 154.5t-31.5 154.5t-86 127t-127 86t-154.5 31.5t-154.5 -30.5t-127 -85t-86 -127t-31.5 -156.5zM377 866v572h131v-572h-131zM532 1112v94q72 0 89.5 13.5t17.5 54.5q0 43 -18.5 55t-88.5 12v97h39q203 0 203 -152q0 -109 -76 -127 q70 -18 70 -139v-90q0 -20 4 -38t8 -26h-135q-16 29 -16 70q0 20 5 55t5 49q0 72 -107 72z" />
<glyph unicode="&#xaf;" horiz-adv-x="870" d="M98 1298v168h664v-168h-664z" />
<glyph unicode="&#xb0;" horiz-adv-x="847" d="M76 1307q0 94 35.5 160.5t90 108.5t118 61.5t120.5 19.5q55 0 118 -19.5t116 -61.5t89 -108.5t36 -160.5q0 -96 -36 -164t-89 -111t-115.5 -63.5t-118.5 -20.5q-59 0 -123.5 19.5t-118 62.5t-88 111t-34.5 166zM211 1298q0 -45 18.5 -83.5t50 -67.5t73.5 -45.5t91 -16.5 t91.5 16.5t74 45.5t50 67.5t18.5 83.5q0 43 -18.5 82t-50 69t-73.5 47t-92 17q-49 0 -91 -17t-73.5 -47t-50 -69t-18.5 -82z" />
<glyph unicode="&#xb1;" horiz-adv-x="1273" d="M143 0v201h985v-201h-985zM143 725v201h394v393h200v-393h391v-201h-391v-393h-200v393h-394z" />
<glyph unicode="&#xb2;" horiz-adv-x="733" d="M94 827v136h543v-136h-543zM102 993q59 154 207 232q166 88 166 192q0 109 -80 109q-100 0 -100 -101l-4 -36h-185q2 264 289 264q254 0 254 -203q0 -192 -164 -276q-147 -78 -170 -181h-213z" />
<glyph unicode="&#xb3;" horiz-adv-x="704" d="M98 1077h178q0 -125 74 -133v-133q-252 14 -252 266zM102 1403q0 240 244 250v-135q-68 -10 -67 -74v-41h-177zM279 1182v133h51q115 0 114 110q0 82 -65 93v135q233 -4 233 -236q0 -111 -82 -168q99 -51 103 -188q0 -123 -61.5 -184.5t-190.5 -65.5v135q82 6 82 101 q0 72 -31 103.5t-102 31.5h-51z" />
<glyph unicode="&#xb4;" horiz-adv-x="714" d="M106 1241l183 225h426l-363 -225h-246z" />
<glyph unicode="&#xb6;" horiz-adv-x="1067" d="M164 1229q0 63 14.5 119.5t41 98.5t61 66.5t75.5 24.5h574v-242h-113v-1171h-69v1194h-220v-1194h-82v829q-47 -35 -90 -34q-41 0 -75.5 24.5t-61 66.5t-41 98t-14.5 120z" />
<glyph unicode="&#xb7;" horiz-adv-x="565" d="M102 688v254h361v-254h-361z" />
<glyph unicode="&#xb8;" horiz-adv-x="569" d="M102 -43h228q94 -53 144 -100t50 -105q0 -49 -45 -119h-352q68 49 99.5 80t31.5 58q0 37 -41 76.5t-115 109.5z" />
<glyph unicode="&#xb9;" horiz-adv-x="538" d="M109 1436v110q166 0 186 119h119v-874h-183v645h-122z" />
<glyph unicode="&#xba;" horiz-adv-x="909" d="M90 1135v274q0 279 342 285v-181q-41 -2 -65.5 -25.5t-24.5 -70.5v-299q0 -47 21.5 -74.5t68.5 -29.5v-176q-342 4 -342 297zM463 838v176q86 14 86 104v299q0 84 -86 96v181q336 -10 336 -287v-274q0 -283 -336 -295z" />
<glyph unicode="&#xbb;" horiz-adv-x="1026" d="M94 211v160l326 229l-326 229v164l436 -319v-146zM463 211v160l330 229l-330 229v164l440 -319v-146z" />
<glyph unicode="&#xbc;" horiz-adv-x="1611" d="M117 0l1153 1659h209l-1153 -1659h-209zM133 1436v110q166 0 184 119h121v-874h-182v645h-123zM913 158v121l279 473v-248l-129 -217h129v-129h-279zM1225 0v807l2 4h172v-524h117v-129h-117v-158h-174z" />
<glyph unicode="&#xbd;" horiz-adv-x="1622" d="M109 1436v110q166 0 186 119h119v-874h-183v645h-122zM117 0l1153 1659h209l-1153 -1659h-209zM899 0v135h541v-135h-541zM907 166q29 72 80 131t127 100q86 47 127 90t41 101q0 113 -84 112q-53 0 -73.5 -23.5t-24.5 -76.5l-2 -41h-185q0 268 285 268q256 0 256 -204 q0 -195 -166 -277q-72 -41 -115 -83t-55 -97h-211z" />
<glyph unicode="&#xbe;" horiz-adv-x="1601" d="M35 1081h178q4 -129 78 -135v-133q-254 14 -256 268zM43 1405q0 242 244 248v-133q-70 -8 -70 -76v-39h-174zM117 0l1153 1659h209l-1153 -1659h-209zM217 1182v133h49q117 0 117 110q0 84 -66 95v133q231 -4 232 -234q0 -111 -78 -170q100 -51 100 -188 q0 -242 -252 -248v133q82 8 82 101q0 72 -32.5 103.5t-102.5 31.5h-49zM913 158v121l283 473v-248l-127 -217h127v-129h-283zM1227 0v807l176 2v-522h115v-129h-115v-158h-176z" />
<glyph unicode="&#xbf;" horiz-adv-x="1134" d="M49 201q0 213 184 360q92 72 144.5 149.5t52.5 145.5v88h291q-4 -160 -43 -266.5t-125 -169.5q-74 -55 -118 -127t-44 -170q0 -178 137 -197v-258q-479 14 -479 445zM408 1108v301h342v-301h-342zM584 14q92 4 129 46t37 120h333q0 -418 -499 -424v258z" />
<glyph unicode="&#xc0;" horiz-adv-x="1327" d="M14 0l412 1622h481l412 -1622h-391l-76 340h-324l54 270h215l-127 660l-287 -1270h-369zM334 1980h379l190 -225h-201z" />
<glyph unicode="&#xc1;" horiz-adv-x="1327" d="M14 0l412 1622h481l412 -1622h-391l-76 340h-324l54 270h215l-127 660l-287 -1270h-369zM399 1755l183 225h426l-363 -225h-246z" />
<glyph unicode="&#xc2;" horiz-adv-x="1327" d="M14 0l412 1622h481l412 -1622h-391l-76 340h-324l54 270h215l-127 660l-287 -1270h-369zM303 1755l235 225h250l236 -225h-236l-123 109l-125 -109h-237z" />
<glyph unicode="&#xc3;" horiz-adv-x="1327" d="M14 0l412 1622h481l412 -1622h-391l-76 340h-324l54 270h215l-127 660l-287 -1270h-369zM262 1755q0 121 69.5 173t178.5 52q59 0 95 -9t63.5 -20.5t56.5 -20.5t72 -9q41 0 65.5 9t24.5 50h180q0 -125 -77 -175t-206 -50q-43 0 -73.5 9.5t-59 20.5t-59.5 20t-70 9 q-41 0 -60.5 -12t-19.5 -47h-180z" />
<glyph unicode="&#xc4;" horiz-adv-x="1327" d="M14 0l412 1622h481l412 -1622h-391l-76 340h-324l54 270h215l-127 660l-287 -1270h-369zM315 1755v225h271v-225h-271zM735 1755v225h277v-225h-277z" />
<glyph unicode="&#xc5;" horiz-adv-x="1327" d="M14 0l412 1622h121q-37 23 -60.5 63t-23.5 101q0 53 19.5 90t49 59.5t65.5 32.5t67 10t66.5 -10t64 -32.5t48 -59.5t19.5 -90q0 -61 -24.5 -101t-61.5 -63h131l412 -1622h-391l-76 340h-324l54 270h215l-127 660l-287 -1270h-369zM578 1780q0 -35 25.5 -56.5t64.5 -21.5 q37 0 61.5 21.5t24.5 56.5t-24.5 59.5t-61.5 24.5q-39 0 -64.5 -24.5t-25.5 -59.5z" />
<glyph unicode="&#xc6;" horiz-adv-x="1538" d="M18 0l412 1622h535v-1622h-277v340h-180l55 270h121v658h-57l-262 -1268h-347zM1020 0v281h420v-281h-420zM1020 709v270h391v-270h-391zM1020 1350v272h420v-272h-420z" />
<glyph unicode="&#xc7;" horiz-adv-x="1331" d="M92 444v770q0 418 531 443v-266q-150 -18 -150 -162v-844q0 -135 150 -156v-262q-530 20 -531 477zM452 -43h228q94 -53 144 -100t50 -105q0 -49 -45 -119h-352q68 49 99.5 80t31.5 58q0 37 -41 76.5t-115 109.5zM698 -33v262q162 14 162 156v223h389v-174 q0 -455 -551 -467zM698 1393v266q551 -4 551 -451v-151h-389v172q0 156 -162 164z" />
<glyph unicode="&#xc8;" horiz-adv-x="1081" d="M102 0v1622h375v-1622h-375zM211 1980h379l190 -225h-201zM535 0v281h487v-281h-487zM535 709v270h458v-270h-458zM535 1350v272h487v-272h-487z" />
<glyph unicode="&#xc9;" horiz-adv-x="1081" d="M102 0v1622h375v-1622h-375zM274 1755l183 225h426l-363 -225h-246zM535 0v281h487v-281h-487zM535 709v270h458v-270h-458zM535 1350v272h487v-272h-487z" />
<glyph unicode="&#xca;" horiz-adv-x="1081" d="M102 0v1622h375v-1622h-375zM180 1755l235 225h250l236 -225h-236l-123 109l-125 -109h-237zM535 0v281h487v-281h-487zM535 709v270h458v-270h-458zM535 1350v272h487v-272h-487z" />
<glyph unicode="&#xcb;" horiz-adv-x="1081" d="M102 0v1622h375v-1622h-375zM192 1755v225h271v-225h-271zM535 0v281h487v-281h-487zM535 709v270h458v-270h-458zM535 1350v272h487v-272h-487zM612 1755v225h277v-225h-277z" />
<glyph unicode="&#xcc;" horiz-adv-x="587" d="M-30 1980h379l190 -225h-201zM102 0v1622h383v-1622h-383z" />
<glyph unicode="&#xcd;" horiz-adv-x="587" d="M32 1755l183 225h426l-363 -225h-246zM102 0v1622h383v-1622h-383z" />
<glyph unicode="&#xce;" horiz-adv-x="587" d="M-63 1755l235 225h250l236 -225h-236l-123 109l-125 -109h-237zM102 0v1622h383v-1622h-383z" />
<glyph unicode="&#xcf;" horiz-adv-x="587" d="M-50 1755v225h271v-225h-271zM102 0v1622h383v-1622h-383zM370 1755v225h277v-225h-277z" />
<glyph unicode="&#xd0;" horiz-adv-x="1421" d="M59 700v168h127v754h373v-754h162v-168h-162v-700h-373v700h-127zM614 0v276h136q104 0 149 35t45 109v760q0 88 -50 127t-151 39h-129v276h197q516 0 516 -457v-702q0 -463 -520 -463h-193z" />
<glyph unicode="&#xd1;" horiz-adv-x="1398" d="M102 0v1622h349v-1622h-349zM299 1755q0 121 69.5 173t178.5 52q59 0 95 -9t63.5 -20.5t56.5 -20.5t72 -9q41 0 65.5 9t24.5 50h180q0 -125 -77 -175t-206 -50q-43 0 -73.5 9.5t-59 20.5t-59.5 20t-70 9q-41 0 -60.5 -12t-19.5 -47h-180zM496 930v565l405 -827v-559z M944 0v1622h354v-1622h-354z" />
<glyph unicode="&#xd2;" d="M92 463v741q0 436 539 453v-264q-158 -18 -158 -172v-818q0 -158 158 -174v-262q-539 23 -539 496zM338 1980h379l190 -225h-201zM698 -33v262q162 14 162 174v818q0 158 -162 172v266q551 -4 551 -463v-741q0 -475 -551 -488z" />
<glyph unicode="&#xd3;" d="M92 463v741q0 436 539 453v-264q-158 -18 -158 -172v-818q0 -158 158 -174v-262q-539 23 -539 496zM403 1755l183 225h426l-363 -225h-246zM698 -33v262q162 14 162 174v818q0 158 -162 172v266q551 -4 551 -463v-741q0 -475 -551 -488z" />
<glyph unicode="&#xd4;" d="M92 463v741q0 436 539 453v-264q-158 -18 -158 -172v-818q0 -158 158 -174v-262q-539 23 -539 496zM307 1755l235 225h250l236 -225h-236l-123 109l-125 -109h-237zM698 -33v262q162 14 162 174v818q0 158 -162 172v266q551 -4 551 -463v-741q0 -475 -551 -488z" />
<glyph unicode="&#xd5;" d="M92 463v741q0 436 539 453v-264q-158 -18 -158 -172v-818q0 -158 158 -174v-262q-539 23 -539 496zM268 1755q0 121 69.5 173t178.5 52q59 0 95 -9t63.5 -20.5t56.5 -20.5t72 -9q41 0 65.5 9t24.5 50h180q0 -125 -77 -175t-206 -50q-43 0 -73.5 9.5t-59 20.5t-59.5 20 t-70 9q-41 0 -60.5 -12t-19.5 -47h-180zM698 -33v262q162 14 162 174v818q0 158 -162 172v266q551 -4 551 -463v-741q0 -475 -551 -488z" />
<glyph unicode="&#xd6;" d="M92 463v741q0 436 539 453v-264q-158 -18 -158 -172v-818q0 -158 158 -174v-262q-539 23 -539 496zM319 1755v225h271v-225h-271zM698 -33v262q162 14 162 174v818q0 158 -162 172v266q551 -4 551 -463v-741q0 -475 -551 -488zM739 1755v225h277v-225h-277z" />
<glyph unicode="&#xd7;" horiz-adv-x="991" d="M98 553l242 244l-242 241l160 158l244 -244l227 232l172 -170l-229 -230l233 -235l-160 -158l-235 236l-240 -244z" />
<glyph unicode="&#xd8;" d="M92 463v741q0 436 539 453v-264q-158 -18 -158 -172v-625l387 625q0 158 -162 172v266q551 -4 551 -463v-741q0 -475 -551 -488v262q162 14 162 174v586l-385 -620q18 -125 156 -140v-262q-539 23 -539 496z" />
<glyph unicode="&#xd9;" horiz-adv-x="1347" d="M98 463v1159h381v-1219q0 -158 158 -174v-262q-539 18 -539 496zM342 1980h379l190 -225h-201zM702 -33v262q80 8 122 48t42 126v1219h385v-1167q-2 -475 -549 -488z" />
<glyph unicode="&#xda;" horiz-adv-x="1347" d="M98 463v1159h381v-1219q0 -158 158 -174v-262q-539 18 -539 496zM409 1755l183 225h426l-363 -225h-246zM702 -33v262q80 8 122 48t42 126v1219h385v-1167q-2 -475 -549 -488z" />
<glyph unicode="&#xdb;" horiz-adv-x="1347" d="M98 463v1159h381v-1219q0 -158 158 -174v-262q-539 18 -539 496zM311 1755l235 225h250l236 -225h-236l-123 109l-125 -109h-237zM702 -33v262q80 8 122 48t42 126v1219h385v-1167q-2 -475 -549 -488z" />
<glyph unicode="&#xdc;" horiz-adv-x="1347" d="M98 463v1159h381v-1219q0 -158 158 -174v-262q-539 18 -539 496zM325 1755v225h271v-225h-271zM702 -33v262q80 8 122 48t42 126v1219h385v-1167q-2 -475 -549 -488zM745 1755v225h277v-225h-277z" />
<glyph unicode="&#xdd;" horiz-adv-x="1329" d="M25 1622h385l215 -535l-168 -403zM399 1755l183 225h426l-363 -225h-246zM485 0v575l435 1047h393l-455 -938v-684h-373z" />
<glyph unicode="&#xde;" horiz-adv-x="1067" d="M102 0v1622h338v-1622h-338zM524 184v244q119 20 119 143v406q0 117 -119 129v244q459 -12 459 -389v-373q0 -381 -459 -404z" />
<glyph unicode="&#xdf;" horiz-adv-x="1228" d="M82 -6v1157q0 483 485 502v-273q-133 -16 -133 -190v-1196h-352zM631 723v252q70 0 103.5 53t33.5 170q0 166 -129 182v273q463 -8 463 -471q0 -221 -164 -336q104 -53 155.5 -143.5t51.5 -231.5q0 -248 -120 -373t-384 -129v271q166 14 166 202q0 141 -42 209t-134 72z " />
<glyph unicode="&#xe0;" horiz-adv-x="1193" d="M82 322q0 174 140 277t448 144v-215q-123 -29 -180.5 -71.5t-61.5 -96.5q4 -133 94 -133q47 0 83 3t65 14v-209q-78 -49 -197 -49q-391 0 -391 336zM137 782q0 352 502 353q446 0 446 -336v-348q0 -375 43 -451h-337q-29 33 -40.5 71t-11.5 85v641q0 96 -100 96 q-78 0 -119 -25.5t-45 -85.5h-338zM279 1466h379l190 -225h-201z" />
<glyph unicode="&#xe1;" horiz-adv-x="1193" d="M82 322q0 174 140 277t448 144v-215q-123 -29 -180.5 -71.5t-61.5 -96.5q4 -133 94 -133q47 0 83 3t65 14v-209q-78 -49 -197 -49q-391 0 -391 336zM137 782q0 352 502 353q446 0 446 -336v-348q0 -375 43 -451h-337q-29 33 -40.5 71t-11.5 85v641q0 96 -100 96 q-78 0 -119 -25.5t-45 -85.5h-338zM342 1241l183 225h426l-363 -225h-246z" />
<glyph unicode="&#xe2;" horiz-adv-x="1193" d="M82 322q0 174 140 277t448 144v-215q-123 -29 -180.5 -71.5t-61.5 -96.5q4 -133 94 -133q47 0 83 3t65 14v-209q-78 -49 -197 -49q-391 0 -391 336zM137 782q0 352 502 353q446 0 446 -336v-348q0 -375 43 -451h-337q-29 33 -40.5 71t-11.5 85v641q0 96 -100 96 q-78 0 -119 -25.5t-45 -85.5h-338zM246 1241l235 225h250l236 -225h-236l-123 109l-125 -109h-237z" />
<glyph unicode="&#xe3;" horiz-adv-x="1193" d="M82 322q0 174 140 277t448 144v-215q-123 -29 -180.5 -71.5t-61.5 -96.5q4 -133 94 -133q47 0 83 3t65 14v-209q-78 -49 -197 -49q-391 0 -391 336zM137 782q0 352 502 353q446 0 446 -336v-348q0 -375 43 -451h-337q-29 33 -40.5 71t-11.5 85v641q0 96 -100 96 q-78 0 -119 -25.5t-45 -85.5h-338zM207 1241q0 121 69.5 173t178.5 52q59 0 95 -9t63.5 -20.5t56.5 -20.5t72 -9q41 0 65.5 9t24.5 50h180q0 -125 -77 -175t-206 -50q-43 0 -73.5 9.5t-59 20.5t-59.5 20t-70 9q-41 0 -60.5 -12t-19.5 -47h-180z" />
<glyph unicode="&#xe4;" horiz-adv-x="1193" d="M82 322q0 174 140 277t448 144v-215q-123 -29 -180.5 -71.5t-61.5 -96.5q4 -133 94 -133q47 0 83 3t65 14v-209q-78 -49 -197 -49q-391 0 -391 336zM137 782q0 352 502 353q446 0 446 -336v-348q0 -375 43 -451h-337q-29 33 -40.5 71t-11.5 85v641q0 96 -100 96 q-78 0 -119 -25.5t-45 -85.5h-338zM258 1241v225h271v-225h-271zM678 1241v225h277v-225h-277z" />
<glyph unicode="&#xe5;" horiz-adv-x="1193" d="M82 322q0 174 140 277t448 144v-215q-123 -29 -180.5 -71.5t-61.5 -96.5q4 -133 94 -133q47 0 83 3t65 14v-209q-78 -49 -197 -49q-391 0 -391 336zM137 782q0 287 332 340q-61 50 -61 150q0 51 19 88t49 60.5t64.5 34.5t67.5 11q31 0 67 -11t64.5 -34.5t48 -60.5 t19.5 -88q0 -47 -16.5 -83t-42.5 -61q338 -37 337 -329v-348q0 -375 43 -451h-337q-29 33 -40.5 71t-11.5 85v641q0 96 -100 96q-78 0 -119 -25.5t-45 -85.5h-338zM520 1268q0 -35 26.5 -57.5t63.5 -22.5t63.5 22.5t26.5 57.5t-26.5 57.5t-63.5 22.5t-63.5 -22.5 t-26.5 -57.5z" />
<glyph unicode="&#xe6;" horiz-adv-x="1792" d="M82 319q0 174 140 278.5t448 145.5v-215q-117 -29 -179.5 -71.5t-62.5 -96.5q0 -133 94 -133q47 0 83 3t65 14v-209q-78 -49 -197 -49q-391 0 -391 333zM137 782q0 352 502 353q92 0 156.5 -19.5t109.5 -56.5q125 76 287 78v-244q-88 -8 -107 -102v-111h107v-166h-107 v-164q0 -121 107 -135v-242h-18q-66 0 -143 18.5t-142.5 64.5t-108.5 125t-43 200v373q0 139 -104 139q-76 0 -115 -25.5t-43 -85.5h-338zM1249 -27v244q115 18 115 143v31h342v-12q0 -199 -110.5 -297t-346.5 -109zM1249 514v166h115v84q0 57 -26.5 90t-88.5 39v242 q236 -4 346.5 -98.5t110.5 -286.5v-236h-457z" />
<glyph unicode="&#xe7;" horiz-adv-x="1136" d="M90 381v373q0 371 447 381v-242q-47 -6 -75 -39t-28 -90v-404q0 -125 103 -143v-244q-446 16 -447 408zM358 -43h228q94 -53 144 -100t50 -105q0 -49 -45 -119h-352q68 49 99.5 80t31.5 58q0 37 -41 76.5t-115 109.5zM602 -27v244q113 20 113 143v111h342v-92 q0 -387 -455 -406zM602 893v242q455 -10 455 -385v-107h-342v121q0 115 -113 129z" />
<glyph unicode="&#xe8;" horiz-adv-x="1140" d="M90 381v373q0 375 451 383v-244q-106 -8 -107 -129v-84h107v-166h-107v-154q0 -127 107 -145v-242q-451 12 -451 408zM242 1466h379l190 -225h-201zM598 -27v244q117 18 117 143v31h342v-12q0 -387 -459 -406zM598 514v166h117v84q0 117 -117 129v242q459 -10 459 -385 v-236h-459z" />
<glyph unicode="&#xe9;" horiz-adv-x="1140" d="M90 381v373q0 375 451 383v-244q-106 -8 -107 -129v-84h107v-166h-107v-154q0 -127 107 -145v-242q-451 12 -451 408zM305 1241l183 225h426l-363 -225h-246zM598 -27v244q117 18 117 143v31h342v-12q0 -387 -459 -406zM598 514v166h117v84q0 117 -117 129v242 q459 -10 459 -385v-236h-459z" />
<glyph unicode="&#xea;" horiz-adv-x="1140" d="M90 381v373q0 375 451 383v-244q-106 -8 -107 -129v-84h107v-166h-107v-154q0 -127 107 -145v-242q-451 12 -451 408zM209 1241l235 225h250l236 -225h-236l-123 109l-125 -109h-237zM598 -27v244q117 18 117 143v31h342v-12q0 -387 -459 -406zM598 514v166h117v84 q0 117 -117 129v242q459 -10 459 -385v-236h-459z" />
<glyph unicode="&#xeb;" horiz-adv-x="1140" d="M90 381v373q0 375 451 383v-244q-106 -8 -107 -129v-84h107v-166h-107v-154q0 -127 107 -145v-242q-451 12 -451 408zM221 1241v225h271v-225h-271zM598 -27v244q117 18 117 143v31h342v-12q0 -387 -459 -406zM598 514v166h117v84q0 117 -117 129v242q459 -10 459 -385 v-236h-459zM641 1241v225h277v-225h-277z" />
<glyph unicode="&#xec;" horiz-adv-x="538" d="M-55 1466h379l190 -225h-201zM102 0v1108h332v-1108h-332z" />
<glyph unicode="&#xed;" horiz-adv-x="538" d="M102 0v1108h332v-1108h-332zM106 1241l183 225h426l-363 -225h-246z" />
<glyph unicode="&#xee;" horiz-adv-x="538" d="M-86 1241l235 225h250l236 -225h-236l-123 109l-125 -109h-237zM102 0v1108h332v-1108h-332z" />
<glyph unicode="&#xef;" horiz-adv-x="538" d="M-74 1241v225h271v-225h-271zM102 0v1108h332v-1108h-332zM346 1241v225h277v-225h-277z" />
<glyph unicode="&#xf0;" horiz-adv-x="1304" d="M94 432v244q0 180 106.5 262t329.5 82q184 0 322 -107v326q-6 137 -176 150v268q535 -8 545 -418v-799q0 -242 -132.5 -354.5t-398.5 -118.5v266q162 18 162 158v281q-27 53 -84 73.5t-156 20.5q-150 0 -149 -117v-252q0 -156 168 -164v-266q-537 18 -537 465zM117 1427 q53 123 177 176.5t322 53.5v-271q-115 -12 -206 -133z" />
<glyph unicode="&#xf1;" horiz-adv-x="1161" d="M102 0v1108h338v-1108h-338zM180 1241q0 121 69.5 173t178.5 52q59 0 95 -9t63.5 -20.5t56.5 -20.5t72 -9q41 0 65.5 9t24.5 50h180q0 -125 -77 -175t-206 -50q-43 0 -73.5 9.5t-59 20.5t-59.5 20t-70 9q-41 0 -60.5 -12t-19.5 -47h-180zM500 874v197q94 63 229 64 q166 0 250 -90.5t84 -294.5v-750h-348v766q0 139 -137 139q-45 0 -78 -31z" />
<glyph unicode="&#xf2;" horiz-adv-x="1144" d="M90 381v373q0 379 465 383v-242q-121 -10 -121 -131v-404q0 -139 121 -145v-242q-465 10 -465 408zM244 1466h379l190 -225h-201zM598 -27v244q117 18 117 143v404q0 117 -117 129v244q459 -10 459 -387v-371q0 -387 -459 -406z" />
<glyph unicode="&#xf3;" horiz-adv-x="1144" d="M90 381v373q0 379 465 383v-242q-121 -10 -121 -131v-404q0 -139 121 -145v-242q-465 10 -465 408zM307 1241l183 225h426l-363 -225h-246zM598 -27v244q117 18 117 143v404q0 117 -117 129v244q459 -10 459 -387v-371q0 -387 -459 -406z" />
<glyph unicode="&#xf4;" horiz-adv-x="1144" d="M90 381v373q0 379 465 383v-242q-121 -10 -121 -131v-404q0 -139 121 -145v-242q-465 10 -465 408zM213 1241l235 225h250l236 -225h-236l-123 109l-125 -109h-237zM598 -27v244q117 18 117 143v404q0 117 -117 129v244q459 -10 459 -387v-371q0 -387 -459 -406z" />
<glyph unicode="&#xf5;" horiz-adv-x="1144" d="M90 381v373q0 379 465 383v-242q-121 -10 -121 -131v-404q0 -139 121 -145v-242q-465 10 -465 408zM172 1241q0 121 69.5 173t178.5 52q59 0 95 -9t63.5 -20.5t56.5 -20.5t72 -9q41 0 65.5 9t24.5 50h180q0 -125 -77 -175t-206 -50q-43 0 -73.5 9.5t-59 20.5t-59.5 20 t-70 9q-41 0 -60.5 -12t-19.5 -47h-180zM598 -27v244q117 18 117 143v404q0 117 -117 129v244q459 -10 459 -387v-371q0 -387 -459 -406z" />
<glyph unicode="&#xf6;" horiz-adv-x="1144" d="M90 381v373q0 379 465 383v-242q-121 -10 -121 -131v-404q0 -139 121 -145v-242q-465 10 -465 408zM223 1241v225h271v-225h-271zM598 -27v244q117 18 117 143v404q0 117 -117 129v244q459 -10 459 -387v-371q0 -387 -459 -406zM643 1241v225h277v-225h-277z" />
<glyph unicode="&#xf7;" horiz-adv-x="870" d="M102 729v172h664v-172h-664zM248 322v258h360v-258h-360zM258 1036v254h356v-254h-356z" />
<glyph unicode="&#xf8;" horiz-adv-x="1144" d="M90 381v373q0 379 465 383v-242q-121 -6 -121 -131v-318l277 365q-18 70 -113 82v244q459 -10 459 -387v-371q0 -387 -459 -406v244q117 18 117 143v234l-254 -334q33 -43 94 -45v-242q-465 10 -465 408z" />
<glyph unicode="&#xf9;" horiz-adv-x="1159" d="M98 356v752h346v-768q0 -137 138 -137q45 0 82 30v-196q-94 -63 -234 -64q-166 0 -249 92.5t-83 290.5zM250 1466h379l190 -225h-201zM719 0v1108h340v-1108h-340z" />
<glyph unicode="&#xfa;" horiz-adv-x="1159" d="M98 356v752h346v-768q0 -137 138 -137q45 0 82 30v-196q-94 -63 -234 -64q-166 0 -249 92.5t-83 290.5zM315 1241l183 225h426l-363 -225h-246zM719 0v1108h340v-1108h-340z" />
<glyph unicode="&#xfb;" horiz-adv-x="1159" d="M98 356v752h346v-768q0 -137 138 -137q45 0 82 30v-196q-94 -63 -234 -64q-166 0 -249 92.5t-83 290.5zM219 1241l235 225h250l236 -225h-236l-123 109l-125 -109h-237zM719 0v1108h340v-1108h-340z" />
<glyph unicode="&#xfc;" horiz-adv-x="1159" d="M98 356v752h346v-768q0 -137 138 -137q45 0 82 30v-196q-94 -63 -234 -64q-166 0 -249 92.5t-83 290.5zM229 1241v225h271v-225h-271zM649 1241v225h277v-225h-277zM719 0v1108h340v-1108h-340z" />
<glyph unicode="&#xfd;" horiz-adv-x="1114" d="M33 1108h317l350 -1186q-35 -92 -81 -148.5t-107 -88t-140 -42t-179 -10.5q-14 0 -23 5v253h63q172 0 177 154zM290 1241l183 225h426l-363 -225h-246zM606 496l142 612h339l-354 -1096z" />
<glyph unicode="&#xfe;" horiz-adv-x="1114" d="M102 -367v2014h338v-2014h-338zM500 55v191q41 -35 88 -35q63 0 95 24.5t32 81.5v449q0 139 -137 139q-45 0 -78 -31v197q94 63 229 64q174 0 253 -96.5t79 -307.5v-366q0 -186 -74 -282.5t-233 -96.5q-147 0 -254 69z" />
<glyph unicode="&#xff;" horiz-adv-x="1114" d="M33 1108h317l350 -1186q-35 -92 -81 -148.5t-107 -88t-140 -42t-179 -10.5q-14 0 -23 5v253h63q172 0 177 154zM206 1241v225h271v-225h-271zM606 496l142 612h339l-354 -1096zM626 1241v225h277v-225h-277z" />
<glyph unicode="&#x152;" horiz-adv-x="1837" d="M92 463v741q0 436 539 453v-264q-158 -18 -158 -172v-818q0 -158 158 -174v-262q-539 23 -539 496zM698 -33v262q154 14 162 168v830q-6 152 -162 166v266q74 -2 139.5 -10.5t116.5 -26.5h283v-305q4 -29 8 -58.5t4 -62.5v-741q0 -33 -4 -64t-8 -59v-332h-313 q-47 -14 -104.5 -22.5t-121.5 -10.5zM1292 0v281h488v-281h-488zM1292 709v270h461v-270h-461zM1292 1350v272h488v-272h-488z" />
<glyph unicode="&#x153;" horiz-adv-x="1761" d="M90 381v373q0 379 465 383v-242q-121 -10 -121 -131v-404q0 -139 121 -145v-242q-465 10 -465 408zM598 -27v244q94 14 113 90q-4 16 -4 25v422v30.5t2 30.5q-23 66 -111 78v244q174 -2 281 -60q104 55 280 60v-244q-84 -6 -104 -94q2 -12 2 -24.5v-24.5v-70h102v-166 h-102v-135q0 -16 -1 -30.5t-3 -26.5q14 -94 106 -107v-242q-172 2 -280 68q-53 -31 -121 -48.5t-160 -19.5zM1214 -27v244q117 18 117 143v31h342v-12q0 -199 -111.5 -297t-347.5 -109zM1214 514v166h117v84q0 57 -26.5 90t-90.5 39v242q236 -4 347.5 -98.5t111.5 -286.5 v-236h-459z" />
<glyph unicode="&#x178;" horiz-adv-x="1329" d="M25 1622h385l215 -535l-168 -403zM315 1755v225h271v-225h-271zM485 0v575l435 1047h393l-455 -938v-684h-373zM735 1755v225h277v-225h-277z" />
<glyph unicode="&#x2c6;" horiz-adv-x="972" d="M125 1241l235 225h250l236 -225h-236l-123 109l-125 -109h-237z" />
<glyph unicode="&#x2dc;" horiz-adv-x="978" d="M90 1241q0 121 69.5 173t178.5 52q59 0 95 -9t63.5 -20.5t56.5 -20.5t72 -9q41 0 65.5 9t24.5 50h180q0 -125 -77 -175t-206 -50q-43 0 -73.5 9.5t-59 20.5t-59.5 20t-70 9q-41 0 -60.5 -12t-19.5 -47h-180z" />
<glyph unicode="&#x2000;" horiz-adv-x="990" />
<glyph unicode="&#x2001;" horiz-adv-x="1980" />
<glyph unicode="&#x2002;" horiz-adv-x="990" />
<glyph unicode="&#x2003;" horiz-adv-x="1980" />
<glyph unicode="&#x2004;" horiz-adv-x="660" />
<glyph unicode="&#x2005;" horiz-adv-x="495" />
<glyph unicode="&#x2006;" horiz-adv-x="330" />
<glyph unicode="&#x2007;" horiz-adv-x="330" />
<glyph unicode="&#x2008;" horiz-adv-x="247" />
<glyph unicode="&#x2009;" horiz-adv-x="396" />
<glyph unicode="&#x200a;" horiz-adv-x="110" />
<glyph unicode="&#x2010;" horiz-adv-x="870" d="M102 569v168h664v-168h-664z" />
<glyph unicode="&#x2011;" horiz-adv-x="870" d="M102 569v168h664v-168h-664z" />
<glyph unicode="&#x2012;" horiz-adv-x="870" d="M102 569v168h664v-168h-664z" />
<glyph unicode="&#x2013;" horiz-adv-x="1376" d="M104 571v166h1158v-166h-1158z" />
<glyph unicode="&#x2014;" horiz-adv-x="2334" d="M121 567v170h2077v-170h-2077z" />
<glyph unicode="&#x2018;" horiz-adv-x="507" d="M82 1151v268l178 250h172l-125 -242h111v-276h-336z" />
<glyph unicode="&#x2019;" horiz-adv-x="507" d="M82 1149l123 242h-109v276h336v-268l-176 -250h-174z" />
<glyph unicode="&#x201a;" horiz-adv-x="507" d="M90 -242l121 242h-109v276h338v-266l-180 -252h-170z" />
<glyph unicode="&#x201c;" horiz-adv-x="894" d="M90 1147v266l176 252h174l-125 -242h111v-276h-336zM481 1147v266l181 252h169l-120 -242h106v-276h-336z" />
<glyph unicode="&#x201d;" horiz-adv-x="894" d="M90 1149l121 242h-109v276h338v-268l-180 -250h-170zM481 1149l125 242h-110v276h335v-268l-176 -250h-174z" />
<glyph unicode="&#x201e;" horiz-adv-x="894" d="M90 -242l121 242h-109v276h338v-266l-180 -252h-170zM481 -242l125 242h-110v276h335v-266l-176 -252h-174z" />
<glyph unicode="&#x2022;" horiz-adv-x="1146" d="M174 852q0 82 32 153.5t85 126t125.5 86t154.5 31.5t156 -31.5t128 -86t86 -126t32 -153.5q0 -84 -32 -155.5t-86 -126t-128 -85t-156 -30.5t-154.5 30.5t-125.5 85t-85 126t-32 155.5z" />
<glyph unicode="&#x2026;" horiz-adv-x="1830" d="M102 0v256h361v-256h-361zM731 0v256h359v-256h-359zM1317 0v256h360v-256h-360z" />
<glyph unicode="&#x202f;" horiz-adv-x="396" />
<glyph unicode="&#x2039;" horiz-adv-x="647" d="M94 528v146l438 319v-164l-329 -229l329 -229v-160z" />
<glyph unicode="&#x203a;" horiz-adv-x="647" d="M94 211v160l326 229l-326 229v164l436 -319v-146z" />
<glyph unicode="&#x205f;" horiz-adv-x="495" />
<glyph unicode="&#x20ac;" horiz-adv-x="1320" d="M14 569l52 183h663l-80 -183h-143v-184q0 -135 149 -156v-262q-532 23 -532 477v125h-109zM16 885l45 166h62v163q0 418 532 443v-266q-150 -18 -149 -162v-178h350l-72 -166h-768zM729 -33v262q158 10 164 142h383q-37 -391 -547 -404zM729 1393v266q174 -2 371 -43 l-115 -260q-76 16 -148.5 24.5t-107.5 12.5z" />
<glyph unicode="&#x2122;" horiz-adv-x="1742" d="M63 1481v141h615v-141h-615zM272 762v651h199v-651h-199zM766 762v860h186v-860h-186zM1006 1239v383h55l149 -592l146 592h55v-387l-158 -473h-94zM1466 762v860h187v-860h-187z" />
<glyph unicode="&#xe000;" horiz-adv-x="1105" d="M0 0v1106h1106v-1106h-1106z" />
</font>
</defs>
</svg>
